<svg width="91" height="19" viewBox="0 0 91 19" fill="none" xmlns="http://www.w3.org/2000/svg">
<path d="M20.9099 18.1825H0L10.4549 0L20.9099 18.1825ZM44.6241 4.73794C45.7663 4.73794 46.7932 4.98621 47.7046 5.48273C48.6293 5.99184 49.3852 6.7599 49.8795 7.6926C50.4157 8.67166 50.6931 9.86751 50.7117 11.2802V12.0005H41.4981C41.561 13.0261 41.8617 13.8327 42.4002 14.4201C42.955 14.9959 43.6963 15.2838 44.6241 15.2838C45.195 15.2913 45.7557 15.1322 46.2376 14.826C46.7195 14.5199 47.1017 14.0799 47.3375 13.56L50.5404 13.7942C50.1488 14.9551 49.4157 15.8864 48.341 16.588C47.2664 17.2897 46.0274 17.6394 44.6241 17.637C43.335 17.637 42.2114 17.3725 41.2533 16.8433C40.3007 16.3243 39.5196 15.5395 39.005 14.5845C38.4526 13.5381 38.1747 12.3687 38.1973 11.1857C38.1973 9.89898 38.4653 8.76607 39.0015 7.78701C39.517 6.83152 40.2994 6.04668 41.2533 5.52818C42.2929 4.98641 43.452 4.71467 44.6241 4.73794ZM66.4956 4.73794C67.5376 4.73794 68.491 4.93142 69.3558 5.31839C70.1977 5.66299 70.9378 6.21658 71.5062 6.92684C72.061 7.62617 72.3956 8.44788 72.5098 9.39197L69.2824 9.55631C69.1831 8.87263 68.8344 8.24987 68.3033 7.80799C67.8012 7.37627 67.1576 7.14473 66.4956 7.15762C65.4862 7.15762 64.7053 7.50728 64.1528 8.20661C63.5934 8.90594 63.3148 9.89898 63.3171 11.1857C63.3194 12.4725 63.5968 13.4656 64.1493 14.1649C64.7018 14.8642 65.4839 15.2139 66.4956 15.2139C67.2299 15.2139 67.8581 14.9959 68.3802 14.56C68.9024 14.1124 69.2194 13.476 69.3313 12.6508L72.5832 12.7907C72.4879 13.7204 72.141 14.6065 71.5797 15.3537C71.0149 16.0897 70.2759 16.6737 69.4292 17.0531C68.5015 17.4458 67.5029 17.6434 66.4956 17.6335C65.2065 17.6335 64.0829 17.3701 63.1248 16.8433C62.1709 16.3248 61.3885 15.54 60.873 14.5845C60.3218 13.5378 60.045 12.3684 60.0687 11.1857C60.0687 9.89898 60.3368 8.76607 60.873 7.78701C61.3885 6.83152 62.1709 6.04668 63.1248 5.52818C64.1644 4.98641 65.3235 4.71467 66.4956 4.73794ZM80.0136 4.73794C81.1558 4.73794 82.1815 4.98621 83.0906 5.48273C84.0153 5.99184 84.7712 6.7599 85.2655 7.6926C85.804 8.67166 86.0814 9.86751 86.0977 11.2802V12.0005H76.8841C76.9493 13.0261 77.2501 13.8327 77.7862 14.4201C78.341 14.9959 79.0823 15.2838 80.0101 15.2838C80.5815 15.292 81.143 15.1332 81.6256 14.827C82.1081 14.5208 82.4909 14.0805 82.727 13.56L85.9264 13.7942C85.5348 14.9598 84.8016 15.8911 83.727 16.588C82.6524 17.285 81.4145 17.6347 80.0136 17.637C78.7245 17.637 77.5997 17.3725 76.6393 16.8433C75.6867 16.3243 74.9056 15.5395 74.391 14.5845C73.8385 13.5381 73.5606 12.3687 73.5832 11.1857C73.5832 9.89898 73.8513 8.76607 74.3875 7.78701C74.903 6.83152 75.6854 6.04668 76.6393 5.52818C77.6789 4.98641 78.838 4.71467 80.0101 4.73794M30.3858 12.8292L36.414 0.825206H40.1904L31.4558 17.3538H29.3158L20.5777 0.825206H24.3576L30.3858 12.8292ZM55.4287 7.39189C55.5895 6.80911 55.8854 6.27243 56.2924 5.8254C56.8239 5.28692 57.5675 5.01768 58.5232 5.01768H59.7121V7.55623H58.4988C57.8204 7.55623 57.2621 7.64948 56.8239 7.83597C56.4135 8.01271 56.073 8.32001 55.8553 8.71012C55.6455 9.11107 55.5406 9.62042 55.5406 10.2382V17.3538H52.4321V5.01768H55.3448L55.4287 7.39189ZM91 17.3573H87.8705V0.82171H91V17.3573ZM44.6241 7.08419C43.7616 7.08419 43.0623 7.34061 42.5261 7.85345C41.9853 8.36629 41.6508 9.08893 41.5226 10.0214H47.4843C47.3724 9.00967 47.0554 8.27188 46.5333 7.80799C46.0146 7.32863 45.3302 7.06917 44.6241 7.08419ZM80.0101 7.08419C79.1476 7.08419 78.4482 7.34061 77.9121 7.85345C77.3736 8.36629 77.0391 9.08893 76.9085 10.0214H82.8703C82.7538 9.00967 82.4356 8.27188 81.9157 7.80799C81.3971 7.32863 80.7127 7.06917 80.0066 7.08419" fill="white"/>
</svg>
